<svg xmlns="http://www.w3.org/2000/svg" viewBox="0 0 64 64">
  <circle cx="32" cy="32" r="30" fill="#F57C00"/>
  <path d="M32 8c-2 0-3 1-3 2s1 3 3 6c2-3 3-5 3-6s-1-2-3-2z" fill="#1B5E20"/>
  <circle cx="32" cy="34" r="22" fill="#F57C00"/>
  <path d="M32 14c-11 0-20 9-20 20s9 20 20 20 20-9 20-20-9-20-20-20zm0 36c-8.8 0-16-7.2-16-16s7.2-16 16-16 16 7.2 16 16-7.2 16-16 16z" fill="#E65100" opacity="0.3"/>
  <text x="32" y="40" text-anchor="middle" font-family="Arial" font-weight="bold" font-size="16" fill="white">AC</text>
</svg>
